<svg xmlns="http://www.w3.org/2000/svg" width="256" height="256" fill="none" viewBox="0 0 256 256" id="drive">
  <rect width="224" height="224" x="16" y="16" fill="#EEE" rx="70"></rect>
  <path fill="#EA4335" d="M152.492 147.697L158.242 167.523L173.31 183.75C175.348 182.576 177.083 180.871 178.303 178.758L192.303 154.515C193.522 152.409 194.129 150.053 194.129 147.697L172.629 143.53L152.492 147.697Z"></path>
  <path fill="#188038" d="M148.818 69.2203C146.78 68.046 144.439 67.3945 142 67.3945H114.008C111.583 67.3945 109.22 68.0612 107.189 69.2203L113.22 89.5309L127.947 105.167L128 105.273L142.833 89.4476L148.818 69.2203Z"></path>
  <path fill="#1967D2" d="M103.508 147.697L82.0456 142.772L61.8789 147.697C61.8789 150.045 62.485 152.394 63.6971 154.507L77.6971 178.757C78.9168 180.863 80.6516 182.568 82.6895 183.75L97.5304 168.462L103.508 147.697Z"></path>
  <path fill="#FBBC04" d="M173.053 107.544L153.811 74.2102C152.591 72.0966 150.856 70.392 148.818 69.2178L128 105.271L152.492 147.695H194.121C194.121 145.339 193.515 142.99 192.295 140.877L173.053 107.544Z"></path>
  <path fill="#4285F4" d="M152.492 147.697H103.508L82.6895 183.75C84.7273 184.925 87.0682 185.576 89.5076 185.576H166.485C168.924 185.576 171.265 184.925 173.303 183.75L152.492 147.697Z"></path>
  <path fill="#34A853" d="M128 105.271L107.19 69.2178C105.152 70.392 103.424 72.089 102.205 74.195L63.6971 140.9C62.485 143.006 61.8789 145.354 61.8789 147.695H103.508L128 105.271Z"></path>
</svg>
