<svg xmlns="http://www.w3.org/2000/svg" width="256" height="256" fill="none" viewBox="0 0 256 256" id="google">
  <rect width="224" height="224" x="16" y="16" fill="#EEE" rx="70"></rect>
  <path fill="#4285F4" d="M192.224 129.249C192.224 123.786 191.78 119.8 190.821 115.666H128.443V140.321H165.058C164.32 146.449 160.333 155.676 151.475 161.877L151.351 162.702L171.073 177.981L172.44 178.117C184.989 166.528 192.224 149.475 192.224 129.249Z"></path>
  <path fill="#34A853" d="M128.443 194.208C146.381 194.208 161.44 188.302 172.439 178.115L151.475 161.875C145.864 165.787 138.335 168.518 128.443 168.518C110.874 168.518 95.9625 156.929 90.647 140.91L89.8679 140.976L69.36 156.848L69.0918 157.593C80.017 179.296 102.458 194.208 128.443 194.208Z"></path>
  <path fill="#FBBC05" d="M90.6476 140.912C89.245 136.779 88.4333 132.349 88.4333 127.773C88.4333 123.195 89.245 118.766 90.5738 114.633L90.5366 113.752L69.7718 97.626L69.0924 97.9491C64.5896 106.955 62.0059 117.069 62.0059 127.773C62.0059 138.476 64.5896 148.589 69.0924 157.595L90.6476 140.912Z"></path>
  <path fill="#EB4335" d="M128.443 87.0221C140.918 87.0221 149.334 92.4109 154.132 96.9142L172.882 78.6068C161.367 67.903 146.381 61.333 128.443 61.333C102.458 61.333 80.017 76.2445 69.0918 97.9473L90.5732 114.631C95.9625 98.6119 110.874 87.0221 128.443 87.0221Z"></path>
</svg>
