<svg xmlns="http://www.w3.org/2000/svg" width="256" height="256" fill="none" viewBox="0 0 256 256" id="spotify">
  <rect width="224" height="224" x="16" y="16" fill="#EEE" rx="70"></rect>
  <path fill="#1ED760" d="M128.001 61.333C91.1819 61.333 61.334 91.1814 61.334 128C61.334 164.821 91.1824 194.666 128.001 194.666C164.822 194.666 194.667 164.821 194.667 128C194.667 91.184 164.822 61.3367 128 61.3367L128 61.3335L128.001 61.333ZM158.573 157.486C157.379 159.444 154.815 160.065 152.857 158.863C137.204 149.302 117.5 147.137 94.2944 152.439C93.2198 152.683 92.0921 152.491 91.1592 151.904C90.2263 151.318 89.5645 150.385 89.3194 149.31C89.1973 148.778 89.1812 148.227 89.2723 147.689C89.3633 147.151 89.5595 146.636 89.8498 146.174C90.1401 145.712 90.5187 145.312 90.9639 144.996C91.4091 144.68 91.9122 144.456 92.4444 144.335C117.84 138.532 139.623 141.03 157.196 151.77C159.154 152.972 159.775 155.528 158.573 157.486ZM166.733 139.334C165.228 141.779 162.028 142.551 159.584 141.047C141.664 130.032 114.348 126.842 93.1527 133.276C90.4038 134.106 87.5007 132.557 86.6663 129.813C85.8382 127.064 87.3882 124.166 90.1324 123.33C114.343 115.984 144.442 119.542 165.021 132.188C167.465 133.693 168.238 136.893 166.733 139.334ZM167.433 120.431C145.947 107.668 110.498 106.494 89.9835 112.722C86.6892 113.721 83.2053 111.861 82.2074 108.566C81.209 105.271 83.0668 101.789 86.3637 100.788C109.912 93.6387 149.06 95.0205 173.797 109.706C176.767 111.464 177.738 115.291 175.978 118.25C174.227 121.214 170.39 122.19 167.437 120.431H167.433Z"></path>
</svg>
