<svg xmlns="http://www.w3.org/2000/svg" width="256" height="256" fill="none" viewBox="0 0 256 256" id="youtube">
  <rect width="224" height="224" x="16" y="16" fill="#EEE" rx="70"></rect>
  <path fill="red" fill-rule="evenodd" d="M187.385 88.2825C189.455 90.3525 190.946 92.9286 191.711 95.7543C196.114 113.477 195.097 141.468 191.796 159.875C191.032 162.7 189.54 165.277 187.47 167.347C185.4 169.417 182.824 170.908 179.998 171.673C169.654 174.494 128.019 174.494 128.019 174.494C128.019 174.494 86.383 174.494 76.0381 171.673C73.2124 170.908 70.6364 169.416 68.5665 167.346C66.4966 165.276 65.005 162.7 64.2404 159.875C59.8116 142.229 61.0254 114.221 64.1545 95.8402C64.919 93.0144 66.4105 90.4382 68.4804 88.3681C70.5504 86.298 73.1264 84.8063 75.9522 84.0415C86.2971 81.2202 127.934 81.1348 127.934 81.1348C127.934 81.1348 169.568 81.1348 179.913 83.9561C182.739 84.7208 185.315 86.2125 187.385 88.2825ZM149.218 127.813L114.679 147.819V107.808L149.218 127.813Z" clip-rule="evenodd"></path>
</svg>
